<svg xmlns="http://www.w3.org/2000/svg" width="1024" height="768"><g fill="#018d96" style="font-style:normal;font-weight:300;font-size:72px;line-height:1;font-family:MontserratLightAlt1;font-variant-ligatures:normal;text-align:center;text-anchor:middle"><path d="M403.846-1.512C407.158-.216 410.686.36 414.43.36c3.96 0 7.344-.576 10.08-1.8 2.736-1.152 4.752-2.808 6.048-4.824 1.296-2.016 2.016-4.248 2.016-6.696 0-2.952-.792-5.328-2.376-7.056-1.584-1.728-3.456-3.096-5.616-3.96-2.232-.864-5.184-1.728-8.856-2.664-3.312-.792-5.976-1.584-7.848-2.304-1.944-.72-3.528-1.728-4.824-3.096-1.296-1.296-1.944-3.096-1.944-5.4 0-2.952 1.152-5.4 3.6-7.272 2.376-1.872 5.904-2.808 10.584-2.808 2.304 0 4.68.36 7.128 1.08 2.448.72 4.68 1.8 6.696 3.168l1.368-2.952c-2.016-1.368-4.32-2.448-6.984-3.312-2.736-.792-5.472-1.224-8.208-1.224-4.032 0-7.344.648-10.008 1.8-2.664 1.224-4.608 2.88-5.904 4.896-1.296 2.016-1.944 4.248-1.944 6.696 0 3.024.72 5.472 2.304 7.272a14.278 14.278 0 0 0 5.688 3.96c2.232.864 5.184 1.8 8.928 2.664 3.24.792 5.832 1.512 7.776 2.232 1.872.72 3.528 1.8 4.824 3.096 1.296 1.368 1.944 3.168 1.944 5.4 0 2.952-1.224 5.328-3.672 7.128-2.448 1.872-6.12 2.736-10.872 2.736-3.312 0-6.48-.576-9.504-1.728-3.024-1.152-5.4-2.736-7.128-4.608L396.07-6.48c1.872 2.016 4.464 3.672 7.776 4.968z" style="font-style:normal;font-weight:300;font-size:72px;line-height:1;font-family:MontserratLightAlt1;font-variant-ligatures:normal;text-align:center;text-anchor:middle" transform="matrix(2.33333 0 0 2.33333 -717.635 442.8)"/><path d="M445.057-50.4V0h3.672v-50.4z" style="font-style:normal;font-weight:300;font-size:72px;line-height:1;font-family:MontserratLightAlt1;font-variant-ligatures:normal;text-align:center;text-anchor:middle" transform="matrix(2.33333 0 0 2.33333 -703.635 442.8)"/><path d="M492.86-17.64c3.744-1.08 6.696-2.952 8.712-5.688 2.016-2.736 3.096-6.048 3.096-10.08 0-5.256-1.8-9.432-5.4-12.456-3.6-3.024-8.568-4.536-14.904-4.536h-18.072v3.312h18.072c5.328 0 9.432 1.224 12.312 3.6 2.808 2.376 4.248 5.76 4.248 10.08 0 4.392-1.44 7.776-4.248 10.152-2.88 2.376-6.984 3.528-12.312 3.528h-18.072V0h3.672v-16.488h14.4c1.44 0 3.096-.072 4.896-.36L501.284 0h4.176z" style="font-style:normal;font-weight:300;font-size:72px;line-height:1;font-family:MontserratLightAlt1;font-variant-ligatures:normal;text-align:center;text-anchor:middle" transform="matrix(2.33333 0 0 2.33333 -689.635 442.8)"/><path d="M518.182-50.4V0h3.672v-50.4z" style="font-style:normal;font-weight:300;font-size:72px;line-height:1;font-family:MontserratLightAlt1;font-variant-ligatures:normal;text-align:center;text-anchor:middle" transform="matrix(2.33333 0 0 2.33333 -675.635 442.8)"/><path d="M544.24-5.184C547.77-1.44 552.738.36 559.146.36c6.336 0 11.304-1.8 14.904-5.544 3.528-3.672 5.328-9.072 5.328-16.2V-50.4h-3.672v28.872c0 6.192-1.44 10.872-4.248 13.896-2.88 3.096-6.912 4.608-12.24 4.608-5.4 0-9.504-1.512-12.312-4.608-2.88-3.024-4.248-7.704-4.248-13.896V-50.4h-3.672v29.016c0 7.128 1.728 12.528 5.256 16.2z" style="font-style:normal;font-weight:300;font-size:72px;line-height:1;font-family:MontserratLightAlt1;font-variant-ligatures:normal;text-align:center;text-anchor:middle" transform="matrix(2.33333 0 0 2.33333 -661.635 442.8)"/><path d="M599.175-1.512C602.487-.216 606.015.36 609.759.36c3.96 0 7.344-.576 10.08-1.8 2.736-1.152 4.752-2.808 6.048-4.824 1.296-2.016 2.016-4.248 2.016-6.696 0-2.952-.792-5.328-2.376-7.056-1.584-1.728-3.456-3.096-5.616-3.96-2.232-.864-5.184-1.728-8.856-2.664-3.312-.792-5.976-1.584-7.848-2.304-1.944-.72-3.528-1.728-4.824-3.096-1.296-1.296-1.944-3.096-1.944-5.4 0-2.952 1.152-5.4 3.6-7.272 2.376-1.872 5.904-2.808 10.584-2.808 2.304 0 4.68.36 7.128 1.08 2.448.72 4.68 1.8 6.696 3.168l1.368-2.952c-2.016-1.368-4.32-2.448-6.984-3.312-2.736-.792-5.472-1.224-8.208-1.224-4.032 0-7.344.648-10.008 1.8-2.664 1.224-4.608 2.88-5.904 4.896-1.296 2.016-1.944 4.248-1.944 6.696 0 3.024.72 5.472 2.304 7.272a14.278 14.278 0 0 0 5.688 3.96c2.232.864 5.184 1.8 8.928 2.664 3.24.792 5.832 1.512 7.776 2.232 1.872.72 3.528 1.8 4.824 3.096 1.296 1.368 1.944 3.168 1.944 5.4 0 2.952-1.224 5.328-3.672 7.128-2.448 1.872-6.12 2.736-10.872 2.736-3.312 0-6.48-.576-9.504-1.728-3.024-1.152-5.4-2.736-7.128-4.608l-1.656 2.736c1.872 2.016 4.464 3.672 7.776 4.968z" style="font-style:normal;font-weight:300;font-size:72px;line-height:1;font-family:MontserratLightAlt1;font-variant-ligatures:normal;text-align:center;text-anchor:middle" transform="matrix(2.33333 0 0 2.33333 -647.635 442.8)"/></g></svg>